<svg width="220" height="310" viewBox="0 0 220 310" fill="none" xmlns="http://www.w3.org/2000/svg">
<path d="M206.099 102.239C193.759 86.3219 174.98 77.2008 154.949 77.2008H-1.5402C-35.5208 77.2008 -56.4457 55.024 -58.5918 52.5202L-58.9495 52.1625C-70.3956 32.3107 -86.6705 15.1416 -105.986 2.44355C-108.49 0.833946 -111.709 0.118562 -114.749 0.833943C-117.79 1.37048 -120.472 3.15894 -122.082 5.84161C-125.659 11.207 -124.049 18.3608 -118.863 21.9377C-83.4513 45.3664 -62.3476 84.5335 -62.3476 127.099V210.619C-62.3476 254.436 -26.7574 290.205 17.2385 290.205H21.7097L22.0674 288.954C24.75 280.011 32.9769 273.752 42.2769 273.752C51.5768 273.752 59.8037 280.011 62.4864 288.954L62.8441 290.205H81.6228L81.9805 288.954C84.6632 280.011 92.89 273.752 102.19 273.752C111.49 273.752 119.717 280.011 122.4 288.775L122.757 290.027H124.009C159.778 289.311 190.718 264.631 199.482 229.935L217.545 158.218C222.732 138.366 218.439 118.156 206.099 102.239ZM-38.74 210.441V126.92C-38.74 116.189 -39.8131 105.637 -42.138 95.2642L-42.8534 91.6873L-39.4554 93.1181C-27.2939 98.1257 -14.5959 100.63 -1.5402 100.63H154.949C167.826 100.63 179.809 106.531 187.857 116.726C195.905 126.92 198.588 139.976 195.368 152.495L177.305 224.033C171.045 249.071 148.511 266.598 122.757 266.598H17.4174C-13.5228 266.598 -38.74 241.381 -38.74 210.441Z" fill="#F2D12D"/>
<path d="M42.6347 279.654C37.0905 279.654 32.0828 282.695 29.579 287.523C28.3271 289.67 27.7905 292.173 27.7905 294.677C27.7905 302.904 34.4078 309.521 42.6347 309.521C50.8616 309.521 57.4789 302.904 57.4789 294.677C57.4789 292.173 56.9423 289.67 55.6904 287.523C53.0077 282.695 48.0001 279.654 42.6347 279.654Z" fill="#F2D12D"/>
<path d="M115.604 287.523C112.921 282.695 107.913 279.654 102.548 279.654C97.1824 279.654 91.9959 282.695 89.4921 287.523C88.2401 289.67 87.7036 292.173 87.7036 294.677C87.7036 302.904 94.3209 309.521 102.548 309.521C110.775 309.521 117.392 302.904 117.392 294.677C117.392 292.173 116.855 289.67 115.604 287.523Z" fill="#F2D12D"/>
<path d="M36.9115 173.241C47.2845 173.241 55.6902 164.835 55.6902 154.462C55.6902 144.089 47.2845 135.684 36.9115 135.684C26.5385 135.684 18.1328 144.089 18.1328 154.462C18.1328 164.835 26.5385 173.241 36.9115 173.241Z" fill="#F2D12D"/>
<path d="M103.084 173.241C113.457 173.241 121.863 164.835 121.863 154.462C121.863 144.089 113.457 135.684 103.084 135.684C92.7114 135.684 84.3057 144.089 84.3057 154.462C84.3057 164.835 92.7114 173.241 103.084 173.241Z" fill="#F2D12D"/>
<path d="M70.177 239.412C94.4999 239.412 116.14 225.105 125.261 202.928C127.586 197.205 125.082 190.409 119.538 187.905C116.856 186.653 113.815 186.653 110.954 187.726C108.092 188.799 105.946 191.124 104.694 193.986C98.971 207.757 85.3788 216.52 70.177 216.52C54.6175 216.52 40.8464 207.757 35.481 193.986C33.6926 189.694 29.758 186.832 25.108 186.832C23.6772 186.832 22.2465 187.19 20.8157 187.726C15.0927 190.23 12.41 196.847 14.735 202.57C23.6772 224.926 45.3175 239.412 70.177 239.412Z" fill="#F2D12D"/>
</svg>
