<svg width="420" height="420" viewBox="0 0 420 420" fill="none" xmlns="http://www.w3.org/2000/svg">
<path d="M304.86 178.344C297.455 168.794 286.188 163.321 274.17 163.321H180.276C159.888 163.321 147.333 150.015 146.045 148.513L145.83 148.298C138.963 136.387 129.198 126.086 117.609 118.467C116.106 117.501 114.175 117.072 112.351 117.501C110.526 117.823 108.917 118.896 107.951 120.506C105.805 123.725 106.771 128.017 109.883 130.164C131.129 144.221 143.792 167.721 143.792 193.26V243.373C143.792 269.663 165.146 291.124 191.543 291.124H194.226L194.441 290.373C196.05 285.008 200.986 281.252 206.566 281.252C212.146 281.252 217.082 285.008 218.692 290.373L218.907 291.124H230.174L230.388 290.373C231.998 285.008 236.934 281.252 242.514 281.252C248.094 281.252 253.03 285.008 254.64 290.266L254.855 291.017H255.606C277.067 290.588 295.631 275.779 300.889 254.962L311.727 211.932C314.839 200.021 312.264 187.895 304.86 178.344ZM157.956 243.265V193.153C157.956 186.714 157.312 180.383 155.917 174.16L155.488 172.013L157.527 172.872C164.824 175.876 172.443 177.379 180.276 177.379H274.17C281.896 177.379 289.085 180.92 293.914 187.036C298.743 193.153 300.353 200.986 298.421 208.498L287.583 251.421C283.827 266.444 270.307 276.96 254.855 276.96H191.651C173.087 276.96 157.956 261.829 157.956 243.265Z" fill="#F2D12D"/>
<path d="M206.781 284.793C203.454 284.793 200.45 286.617 198.948 289.514C198.196 290.802 197.875 292.304 197.875 293.807C197.875 298.743 201.845 302.713 206.781 302.713C211.717 302.713 215.688 298.743 215.688 293.807C215.688 292.304 215.366 290.802 214.614 289.514C213.005 286.617 210 284.793 206.781 284.793Z" fill="#F2D12D"/>
<path d="M250.562 289.514C248.953 286.617 245.948 284.793 242.729 284.793C239.51 284.793 236.398 286.617 234.895 289.514C234.144 290.802 233.822 292.304 233.822 293.807C233.822 298.743 237.793 302.713 242.729 302.713C247.665 302.713 251.635 298.743 251.635 293.807C251.635 292.304 251.313 290.802 250.562 289.514Z" fill="#F2D12D"/>
<path d="M203.347 220.946C209.571 220.946 214.615 215.902 214.615 209.678C214.615 203.455 209.571 198.411 203.347 198.411C197.124 198.411 192.08 203.455 192.08 209.678C192.08 215.902 197.124 220.946 203.347 220.946Z" fill="#F2D12D"/>
<path d="M243.051 220.946C249.275 220.946 254.318 215.902 254.318 209.678C254.318 203.455 249.275 198.411 243.051 198.411C236.827 198.411 231.784 203.455 231.784 209.678C231.784 215.902 236.827 220.946 243.051 220.946Z" fill="#F2D12D"/>
<path d="M223.306 260.649C237.9 260.649 250.884 252.064 256.357 238.758C257.752 235.324 256.25 231.247 252.923 229.744C251.314 228.993 249.489 228.993 247.772 229.637C246.055 230.281 244.768 231.676 244.017 233.393C240.583 241.656 232.427 246.914 223.306 246.914C213.971 246.914 205.708 241.656 202.489 233.393C201.416 230.817 199.055 229.101 196.265 229.101C195.407 229.101 194.548 229.315 193.69 229.637C190.256 231.139 188.646 235.11 190.041 238.544C195.407 251.957 208.391 260.649 223.306 260.649Z" fill="#F2D12D"/>
</svg>
