<svg width="380" height="376" viewBox="0 0 380 376" fill="none" xmlns="http://www.w3.org/2000/svg">
<g clip-path="url(#clip0)">
<path d="M283.427 89.0514H281.368V32.646C281.368 28.3589 280.523 24.1137 278.883 20.1529C277.242 16.1921 274.838 12.5933 271.806 9.5618C268.775 6.53034 265.176 4.12565 261.215 2.48504C257.254 0.84442 253.009 4.05718e-06 248.722 0H129.219C120.561 -1.91185e-05 112.257 3.43943 106.135 9.56172C100.013 15.684 96.5733 23.9876 96.5732 32.6459V342.091C96.5732 350.749 100.013 359.053 106.135 365.175C112.257 371.297 120.561 374.737 129.219 374.737H248.722C257.38 374.737 265.684 371.297 271.806 365.175C277.928 359.053 281.368 350.749 281.368 342.091V129.202H283.427L283.427 89.0514Z" fill="#E6E6E6"/>
<path d="M274.419 32.8739V341.863C274.419 348.329 271.85 354.531 267.278 359.103C262.706 363.675 256.504 366.244 250.038 366.244H129.962C123.496 366.244 117.295 363.675 112.723 359.103C108.15 354.531 105.582 348.329 105.582 341.863V32.8739C105.582 26.4078 108.15 20.2065 112.723 15.6343C117.295 11.062 123.496 8.49329 129.962 8.49316H144.529C143.813 10.2521 143.541 12.1599 143.735 14.0489C143.93 15.9378 144.586 17.7501 145.645 19.3261C146.704 20.9021 148.135 22.1937 149.81 23.0872C151.486 23.9807 153.355 24.4487 155.254 24.4501H223.716C225.615 24.4487 227.485 23.9806 229.16 23.0871C230.836 22.1936 232.266 20.9021 233.326 19.3261C234.385 17.75 235.041 15.9378 235.235 14.0489C235.43 12.1599 235.158 10.2521 234.442 8.49316H250.038C256.504 8.49328 262.706 11.062 267.278 15.6343C271.85 20.2065 274.419 26.4078 274.419 32.8739Z" fill="white"/>
<path d="M156.842 93.2181H138.402C136.883 93.2164 135.426 92.6121 134.352 91.5378C133.277 90.4635 132.673 89.0069 132.671 87.4876V69.0479C132.673 67.5286 133.277 66.072 134.352 64.9977C135.426 63.9234 136.883 63.3191 138.402 63.3174H156.842C158.361 63.3191 159.818 63.9234 160.892 64.9977C161.966 66.072 162.57 67.5286 162.572 69.0479V87.4876C162.57 89.0069 161.966 90.4635 160.892 91.5378C159.818 92.6121 158.361 93.2164 156.842 93.2181Z" fill="#FAE053"/>
<path d="M199.221 93.2181H180.781C179.261 93.2164 177.805 92.6121 176.731 91.5378C175.656 90.4635 175.052 89.0069 175.05 87.4876V69.0479C175.052 67.5286 175.656 66.072 176.731 64.9977C177.805 63.9234 179.261 63.3191 180.781 63.3174H199.221C200.74 63.3191 202.196 63.9234 203.271 64.9977C204.345 66.072 204.949 67.5286 204.951 69.0479V87.4876C204.949 89.0069 204.345 90.4635 203.271 91.5378C202.196 92.6121 200.74 93.2164 199.221 93.2181Z" fill="#FAE053"/>
<path d="M241.599 93.2181H223.159C221.64 93.2164 220.183 92.6121 219.109 91.5378C218.035 90.4635 217.43 89.0069 217.429 87.4876V69.0479C217.43 67.5286 218.035 66.072 219.109 64.9977C220.183 63.9234 221.64 63.3191 223.159 63.3174H241.599C243.118 63.3191 244.575 63.9234 245.649 64.9977C246.724 66.072 247.328 67.5286 247.33 69.0479V87.4876C247.328 89.0069 246.724 90.4635 245.649 91.5378C244.575 92.6121 243.118 93.2164 241.599 93.2181Z" fill="#E6E6E6"/>
<path d="M156.842 140.336H138.402C136.883 140.335 135.426 139.73 134.352 138.656C133.277 137.582 132.673 136.125 132.671 134.606V116.166C132.673 114.647 133.277 113.19 134.352 112.116C135.426 111.042 136.883 110.437 138.402 110.436H156.842C158.361 110.437 159.818 111.042 160.892 112.116C161.966 113.19 162.57 114.647 162.572 116.166V134.606C162.57 136.125 161.966 137.582 160.892 138.656C159.818 139.73 158.361 140.335 156.842 140.336Z" fill="#E6E6E6"/>
<path d="M199.221 140.336H180.781C179.261 140.335 177.805 139.73 176.731 138.656C175.656 137.582 175.052 136.125 175.05 134.606V116.166C175.052 114.647 175.656 113.19 176.731 112.116C177.805 111.042 179.261 110.437 180.781 110.436H199.221C200.74 110.437 202.196 111.042 203.271 112.116C204.345 113.19 204.949 114.647 204.951 116.166V134.606C204.949 136.125 204.345 137.582 203.271 138.656C202.196 139.73 200.74 140.335 199.221 140.336Z" fill="#E6E6E6"/>
<path d="M241.599 140.336H223.159C221.64 140.335 220.183 139.73 219.109 138.656C218.035 137.582 217.43 136.125 217.429 134.606V116.166C217.43 114.647 218.035 113.19 219.109 112.116C220.183 111.042 221.64 110.437 223.159 110.436H241.599C243.118 110.437 244.575 111.042 245.649 112.116C246.724 113.19 247.328 114.647 247.33 116.166V134.606C247.328 136.125 246.724 137.582 245.649 138.656C244.575 139.73 243.118 140.335 241.599 140.336Z" fill="#E6E6E6"/>
<path d="M156.842 187.446H138.402C136.883 187.444 135.426 186.84 134.352 185.765C133.277 184.691 132.673 183.234 132.671 181.715V163.275C132.673 161.756 133.277 160.3 134.352 159.225C135.426 158.151 136.883 157.547 138.402 157.545H156.842C158.361 157.547 159.818 158.151 160.892 159.225C161.966 160.3 162.57 161.756 162.572 163.275V181.715C162.57 183.234 161.966 184.691 160.892 185.765C159.818 186.84 158.361 187.444 156.842 187.446Z" fill="#E6E6E6"/>
<path d="M199.221 187.446H180.781C179.261 187.444 177.805 186.84 176.731 185.765C175.656 184.691 175.052 183.234 175.05 181.715V163.275C175.052 161.756 175.656 160.3 176.731 159.225C177.805 158.151 179.261 157.547 180.781 157.545H199.221C200.74 157.547 202.196 158.151 203.271 159.225C204.345 160.3 204.949 161.756 204.951 163.275V181.715C204.949 183.234 204.345 184.691 203.271 185.765C202.196 186.84 200.74 187.444 199.221 187.446Z" fill="#E6E6E6"/>
<path d="M241.599 187.446H223.159C221.64 187.444 220.183 186.84 219.109 185.765C218.035 184.691 217.43 183.234 217.429 181.715V163.275C217.43 161.756 218.035 160.3 219.109 159.225C220.183 158.151 221.64 157.547 223.159 157.545H241.599C243.118 157.547 244.575 158.151 245.649 159.225C246.724 160.3 247.328 161.756 247.33 163.275V181.715C247.328 183.234 246.724 184.691 245.649 185.765C244.575 186.84 243.118 187.444 241.599 187.446Z" fill="#E6E6E6"/>
<path d="M156.842 234.564H138.402C136.883 234.563 135.426 233.958 134.352 232.884C133.277 231.81 132.673 230.353 132.671 228.834V210.394C132.673 208.875 133.277 207.418 134.352 206.344C135.426 205.27 136.883 204.665 138.402 204.664H156.842C158.361 204.665 159.818 205.27 160.892 206.344C161.966 207.418 162.57 208.875 162.572 210.394V228.834C162.57 230.353 161.966 231.81 160.892 232.884C159.818 233.958 158.361 234.563 156.842 234.564Z" fill="#E6E6E6"/>
<path d="M199.221 234.564H180.781C179.261 234.563 177.805 233.958 176.731 232.884C175.656 231.81 175.052 230.353 175.05 228.834V210.394C175.052 208.875 175.656 207.418 176.731 206.344C177.805 205.27 179.261 204.665 180.781 204.664H199.221C200.74 204.665 202.196 205.27 203.271 206.344C204.345 207.418 204.949 208.875 204.951 210.394V228.834C204.949 230.353 204.345 231.81 203.271 232.884C202.196 233.958 200.74 234.563 199.221 234.564Z" fill="#E6E6E6"/>
<path d="M241.599 234.564H223.159C221.64 234.563 220.183 233.958 219.109 232.884C218.035 231.81 217.43 230.353 217.429 228.834V210.394C217.43 208.875 218.035 207.418 219.109 206.344C220.183 205.27 221.64 204.665 223.159 204.664H241.599C243.118 204.665 244.575 205.27 245.649 206.344C246.724 207.418 247.328 208.875 247.33 210.394V228.834C247.328 230.353 246.724 231.81 245.649 232.884C244.575 233.958 243.118 234.563 241.599 234.564Z" fill="#E6E6E6"/>
<path d="M211.081 229.1H192.641C191.054 229.098 189.532 228.466 188.409 227.344C187.287 226.221 186.655 224.699 186.653 223.112V204.672C186.655 203.084 187.287 201.562 188.409 200.44C189.532 199.317 191.054 198.686 192.641 198.684H211.081C212.669 198.686 214.191 199.317 215.313 200.44C216.436 201.562 217.067 203.084 217.069 204.672V223.112C217.067 224.699 216.436 226.221 215.313 227.344C214.191 228.466 212.669 229.098 211.081 229.1Z" fill="#FAE053"/>
<path d="M123.833 276.685C124.53 276.339 125.142 275.843 125.627 275.234C126.112 274.625 126.457 273.917 126.639 273.16C126.82 272.403 126.834 271.615 126.678 270.852C126.522 270.09 126.201 269.37 125.737 268.745L129.719 229.812H121.114L117.949 267.828C116.95 268.677 116.298 269.863 116.115 271.161C115.932 272.458 116.232 273.778 116.957 274.87C117.682 275.962 118.783 276.75 120.05 277.084C121.317 277.419 122.663 277.277 123.833 276.685Z" fill="#FFB8B8"/>
<path d="M131.734 208.326C138.458 208.326 143.909 202.876 143.909 196.152C143.909 189.427 138.458 183.977 131.734 183.977C125.01 183.977 119.559 189.427 119.559 196.152C119.559 202.876 125.01 208.326 131.734 208.326Z" fill="#FFB8B8"/>
<path d="M134.026 252.485C133.539 252.485 133.065 252.325 132.677 252.03C132.29 251.734 132.01 251.32 131.88 250.85C130.905 247.306 128.367 241.314 124.338 233.04C123.428 231.169 122.925 229.128 122.86 227.049C122.795 224.97 123.171 222.901 123.962 220.978C124.753 219.054 125.942 217.32 127.451 215.888C128.959 214.457 130.753 213.36 132.715 212.671C134.575 212.014 136.547 211.737 138.515 211.856C140.484 211.976 142.408 212.488 144.175 213.364C145.942 214.24 147.515 215.461 148.801 216.956C150.088 218.45 151.061 220.187 151.664 222.065C154.788 231.857 154.637 242.346 154.427 246.401C154.401 246.889 154.216 247.355 153.899 247.728C153.583 248.101 153.153 248.36 152.675 248.465L134.505 252.433C134.348 252.468 134.187 252.485 134.026 252.485Z" fill="#CCCCCC"/>
<path d="M151.622 368.097L157.7 368.097L160.591 344.656L151.621 344.657L151.622 368.097Z" fill="#FFB8B8"/>
<path d="M169.42 373.74L150.32 373.741L150.32 366.361L162.04 366.361C163.009 366.361 163.969 366.551 164.864 366.922C165.759 367.293 166.573 367.837 167.258 368.522C167.944 369.207 168.487 370.02 168.858 370.916C169.229 371.811 169.42 372.771 169.42 373.74Z" fill="#2F2E41"/>
<path d="M90.8535 360.221L96.1792 363.149L110.006 344.002L102.146 339.681L90.8535 360.221Z" fill="#FFB8B8"/>
<path d="M103.731 373.741L86.9939 364.539L90.549 358.072L100.82 363.719C102.535 364.662 103.805 366.247 104.351 368.127C104.897 370.006 104.674 372.026 103.731 373.741Z" fill="#2F2E41"/>
<path d="M151.338 355.086C150.797 355.086 150.274 354.888 149.867 354.531C149.461 354.173 149.198 353.68 149.128 353.143L141.528 294.576C141.495 294.317 141.38 294.076 141.201 293.885C141.022 293.695 140.787 293.567 140.53 293.518C140.274 293.47 140.008 293.503 139.772 293.614C139.535 293.726 139.34 293.909 139.214 294.137L107.539 351.604C107.278 352.074 106.857 352.433 106.353 352.618C105.849 352.804 105.295 352.801 104.792 352.613L97.8877 349.982C97.61 349.876 97.3562 349.716 97.1413 349.511C96.9264 349.306 96.7546 349.06 96.6362 348.787C96.5177 348.515 96.4548 348.221 96.4513 347.924C96.4478 347.627 96.5037 347.332 96.6158 347.057L118.558 293.156C118.613 293.019 118.651 292.875 118.67 292.729C121.642 269.726 129.203 258.029 131.45 254.992C131.614 254.769 131.722 254.509 131.765 254.235C131.807 253.962 131.784 253.682 131.696 253.419L131.387 252.492C131.263 252.125 131.238 251.731 131.313 251.351C131.389 250.97 131.562 250.616 131.816 250.323C139.911 241.102 154.021 246.134 154.163 246.185L154.234 246.212L154.278 246.272C170.1 267.97 164.25 338.445 162.917 352.352C162.867 352.875 162.634 353.363 162.259 353.73C161.884 354.098 161.391 354.321 160.867 354.36L151.512 355.08C151.454 355.084 151.396 355.086 151.338 355.086Z" fill="#2F2E41"/>
<path d="M179.066 210.294C179.005 210.562 178.965 210.833 178.947 211.107L157.653 223.392L152.477 220.412L146.959 227.635L155.61 233.801C156.308 234.299 157.15 234.557 158.008 234.536C158.866 234.515 159.694 234.216 160.367 233.685L182.325 216.362C183.316 216.729 184.395 216.785 185.419 216.524C186.443 216.262 187.363 215.695 188.057 214.898C188.75 214.101 189.185 213.112 189.303 212.062C189.42 211.012 189.216 209.951 188.716 209.02C188.216 208.089 187.444 207.332 186.504 206.851C185.563 206.369 184.498 206.185 183.451 206.324C182.403 206.462 181.422 206.916 180.639 207.625C179.856 208.334 179.307 209.265 179.066 210.294Z" fill="#FFB8B8"/>
<path d="M156.941 223.973L150.059 232.893C149.863 233.147 149.615 233.355 149.331 233.504C149.047 233.654 148.735 233.74 148.415 233.757C148.095 233.775 147.774 233.723 147.476 233.606C147.178 233.489 146.908 233.308 146.686 233.077L138.895 224.987C137.603 223.978 136.763 222.497 136.561 220.87C136.359 219.243 136.81 217.602 137.815 216.306C138.821 215.011 140.298 214.167 141.925 213.96C143.552 213.753 145.194 214.198 146.492 215.2L156.264 220.664C156.544 220.82 156.787 221.035 156.976 221.294C157.165 221.553 157.296 221.849 157.36 222.164C157.424 222.478 157.42 222.802 157.348 223.114C157.275 223.426 157.137 223.719 156.941 223.973Z" fill="#CCCCCC"/>
<path d="M130.266 239.47L119.179 237.468C118.864 237.411 118.565 237.287 118.301 237.104C118.038 236.921 117.818 236.683 117.655 236.407C117.492 236.131 117.39 235.823 117.357 235.504C117.324 235.185 117.36 234.863 117.462 234.559L121.057 223.918C121.357 222.306 122.285 220.878 123.636 219.949C124.987 219.02 126.652 218.664 128.265 218.96C129.878 219.256 131.308 220.18 132.241 221.529C133.174 222.878 133.535 224.541 133.243 226.155L132.892 237.345C132.882 237.666 132.803 237.98 132.66 238.267C132.518 238.554 132.315 238.807 132.066 239.009C131.817 239.211 131.527 239.356 131.216 239.436C130.906 239.515 130.582 239.527 130.266 239.47H130.266Z" fill="#CCCCCC"/>
<path d="M133.661 193.351C136.79 195.493 140.899 197.694 144.095 195.413C145.095 194.652 145.821 193.588 146.165 192.379C146.509 191.17 146.453 189.883 146.004 188.709C144.473 184.333 140.269 182.406 136.248 180.929C131.021 179.009 125.33 177.482 119.934 178.857C114.538 180.232 109.769 185.456 110.743 190.939C111.527 195.348 115.686 199.016 115.095 203.455C114.501 207.922 109.477 210.274 105.042 211.072C100.606 211.871 95.6429 212.127 92.4554 215.313C88.3891 219.377 89.4045 226.641 93.2308 230.932C97.057 235.223 102.831 237.168 108.426 238.491C115.839 240.243 123.857 241.163 130.897 238.256C137.938 235.348 143.416 227.522 141.377 220.183C140.515 217.083 138.486 214.463 136.525 211.912C134.563 209.362 132.577 206.694 131.829 203.565C131.206 200.957 131.667 197.93 133.397 195.973C133.711 195.631 133.909 195.198 133.962 194.736C134.015 194.274 133.92 193.807 133.691 193.403L133.661 193.351Z" fill="#2F2E41"/>
<path d="M257.452 368.908H251.14L248.137 344.56H257.453L257.452 368.908Z" fill="#FFB8B8"/>
<path d="M246.631 367.104H258.805V374.77H238.966C238.966 373.763 239.164 372.766 239.549 371.836C239.935 370.906 240.499 370.061 241.211 369.35C241.923 368.638 242.768 368.073 243.698 367.688C244.628 367.303 245.625 367.104 246.631 367.104Z" fill="#2F2E41"/>
<path d="M281.138 368.908H274.826L271.823 344.56H281.139L281.138 368.908Z" fill="#FFB8B8"/>
<path d="M270.317 367.104H282.491V374.77H262.651C262.651 373.763 262.85 372.766 263.235 371.836C263.62 370.906 264.185 370.061 264.896 369.35C265.608 368.638 266.453 368.073 267.383 367.688C268.313 367.303 269.31 367.104 270.317 367.104Z" fill="#2F2E41"/>
<path d="M280.367 296.39C279.687 295.952 279.111 295.371 278.68 294.687C278.249 294.003 277.973 293.232 277.872 292.43C277.771 291.628 277.847 290.813 278.094 290.043C278.342 289.274 278.755 288.567 279.306 287.975L275.149 228.988L287.122 230.149L287.451 287.915C288.385 288.905 288.924 290.204 288.965 291.564C289.006 292.925 288.547 294.254 287.673 295.299C286.8 296.343 285.574 297.031 284.228 297.232C282.881 297.434 281.508 297.134 280.367 296.39H280.367Z" fill="#FFB8B8"/>
<path d="M257.154 356.642L250.205 356.31C249.613 356.282 249.054 356.028 248.644 355.601C248.233 355.174 248.002 354.605 247.998 354.012L247.513 283.699C247.511 283.365 247.581 283.035 247.718 282.73C247.855 282.426 248.056 282.155 248.308 281.936C248.56 281.716 248.856 281.554 249.176 281.46C249.496 281.365 249.833 281.341 250.163 281.389L277.965 285.425C278.514 285.502 279.017 285.774 279.382 286.192C279.746 286.611 279.948 287.146 279.949 287.701L283.525 352.854C283.527 353.16 283.469 353.463 283.353 353.746C283.238 354.029 283.068 354.287 282.852 354.504C282.637 354.721 282.381 354.893 282.098 355.01C281.816 355.128 281.513 355.189 281.208 355.189H273.716C273.163 355.191 272.628 354.994 272.208 354.635C271.788 354.276 271.51 353.778 271.427 353.231L266.804 323.847C266.737 323.417 266.516 323.026 266.183 322.747C265.849 322.467 265.426 322.317 264.991 322.325C264.556 322.333 264.138 322.498 263.815 322.79C263.493 323.082 263.286 323.481 263.235 323.913L259.565 354.603C259.496 355.165 259.224 355.683 258.801 356.059C258.377 356.434 257.831 356.643 257.264 356.645C257.228 356.645 257.191 356.644 257.154 356.642Z" fill="#2F2E41"/>
<path d="M262.047 287.704C255.92 284.3 251.132 283.405 248.824 283.175C248.517 283.145 248.22 283.054 247.949 282.906C247.679 282.758 247.442 282.556 247.252 282.313C247.057 282.069 246.915 281.788 246.832 281.487C246.75 281.186 246.729 280.871 246.772 280.562L253.434 231.105C253.817 228.212 254.935 225.465 256.68 223.125C258.425 220.786 260.74 218.932 263.404 217.74C265.983 216.554 268.822 216.048 271.652 216.27C274.482 216.492 277.207 217.434 279.57 219.007C279.798 219.159 280.022 219.314 280.242 219.472C282.963 221.466 285.033 224.22 286.19 227.388C287.348 230.556 287.543 233.996 286.749 237.274C282.664 253.985 281.26 281.382 281.02 286.704C281.002 287.158 280.849 287.596 280.582 287.963C280.314 288.33 279.944 288.609 279.518 288.766C277.005 289.68 274.352 290.152 271.678 290.162C268.31 290.183 264.993 289.336 262.047 287.704Z" fill="#FAE053"/>
<path d="M277.859 248.809C277.579 248.607 277.347 248.345 277.182 248.042C277.016 247.739 276.92 247.402 276.902 247.058L276.025 231.159C275.938 229.584 276.437 228.033 277.427 226.804C278.416 225.575 279.825 224.756 281.383 224.505C282.94 224.254 284.535 224.588 285.861 225.444C287.186 226.299 288.148 227.615 288.561 229.137L292.415 243.351C292.575 243.944 292.493 244.577 292.188 245.11C291.882 245.643 291.378 246.033 290.785 246.194L279.822 249.166C279.489 249.257 279.14 249.272 278.8 249.211C278.46 249.149 278.139 249.011 277.859 248.809Z" fill="#FAE053"/>
<path d="M267.619 211.025C274.603 211.025 280.265 205.363 280.265 198.378C280.265 191.394 274.603 185.731 267.619 185.731C260.634 185.731 254.972 191.394 254.972 198.378C254.972 205.363 260.634 211.025 267.619 211.025Z" fill="#FFB8B8"/>
<path d="M221.79 223.224C221.853 223.502 221.895 223.785 221.913 224.069L244.032 236.829L249.409 233.734L255.14 241.238L243.639 249.435L218.404 229.527C217.375 229.908 216.254 229.967 215.191 229.695C214.128 229.424 213.173 228.835 212.452 228.007C211.732 227.179 211.28 226.151 211.158 225.061C211.036 223.97 211.249 222.868 211.768 221.902C212.287 220.935 213.089 220.149 214.065 219.649C215.042 219.149 216.148 218.958 217.236 219.101C218.324 219.245 219.342 219.716 220.156 220.453C220.97 221.189 221.54 222.156 221.79 223.224Z" fill="#FFB8B8"/>
<path d="M244.822 235.744C244.785 235.401 244.826 235.054 244.941 234.728C245.057 234.403 245.243 234.107 245.488 233.863L256.746 222.603C257.861 221.488 259.35 220.824 260.925 220.742C262.501 220.659 264.051 221.162 265.277 222.155C266.503 223.147 267.318 224.559 267.565 226.117C267.813 227.675 267.474 229.269 266.615 230.592L258.598 242.946C258.263 243.461 257.738 243.822 257.137 243.95C256.536 244.078 255.909 243.962 255.393 243.628L245.865 237.445C245.575 237.258 245.331 237.008 245.151 236.713C244.97 236.419 244.858 236.088 244.822 235.744Z" fill="#FAE053"/>
<path d="M276.568 208.383C274.209 210.897 269.827 209.547 269.52 206.114C269.496 205.848 269.498 205.579 269.525 205.313C269.684 203.792 270.563 202.412 270.352 200.806C270.304 200.406 270.155 200.025 269.919 199.699C268.039 197.182 263.626 200.825 261.852 198.546C260.764 197.149 262.043 194.949 261.208 193.387C260.106 191.325 256.842 192.342 254.795 191.213C252.518 189.957 252.654 186.463 254.153 184.338C255.981 181.746 259.187 180.363 262.352 180.164C265.518 179.964 268.661 180.82 271.617 181.972C274.974 183.28 278.304 185.089 280.37 188.041C282.883 191.632 283.125 196.459 281.868 200.657C281.104 203.211 278.495 206.331 276.568 208.383Z" fill="#2F2E41"/>
<path d="M379.485 375.39H0.514905C0.378344 375.39 0.247375 375.335 0.150812 375.239C0.0542484 375.142 0 375.011 0 374.875C0 374.738 0.0542484 374.607 0.150812 374.511C0.247375 374.414 0.378344 374.36 0.514905 374.36H379.485C379.622 374.36 379.753 374.414 379.849 374.511C379.946 374.607 380 374.738 380 374.875C380 375.011 379.946 375.142 379.849 375.239C379.753 375.335 379.622 375.39 379.485 375.39Z" fill="#CCCCCC"/>
</g>
<defs>
<clipPath id="clip0">
<rect width="380" height="375.39" fill="white"/>
</clipPath>
</defs>
</svg>
