<svg width="75" height="75" viewBox="0 0 75 75" fill="none" xmlns="http://www.w3.org/2000/svg">
<path d="M56.25 25C56.25 20.0272 54.2746 15.2581 50.7583 11.7417C47.2419 8.22544 42.4728 6.25 37.5 6.25C32.5272 6.25 27.7581 8.22544 24.2417 11.7417C20.7254 15.2581 18.75 20.0272 18.75 25C18.75 46.875 9.375 53.125 9.375 53.125H65.625C65.625 53.125 56.25 46.875 56.25 25Z" stroke="#51CBB0" stroke-width="2" stroke-linecap="round" stroke-linejoin="round"/>
<path d="M42.9062 65.625C42.3568 66.5721 41.5683 67.3583 40.6195 67.9048C39.6707 68.4513 38.5949 68.7389 37.5 68.7389C36.4051 68.7389 35.3293 68.4513 34.3805 67.9048C33.4317 67.3583 32.6432 66.5721 32.0938 65.625" stroke="#51CBB0" stroke-width="2" stroke-linecap="round" stroke-linejoin="round"/>
</svg>
