<svg width="75" height="75" viewBox="0 0 75 75" fill="none" xmlns="http://www.w3.org/2000/svg">
<path d="M28.125 68.75C29.8509 68.75 31.25 67.3509 31.25 65.625C31.25 63.8991 29.8509 62.5 28.125 62.5C26.3991 62.5 25 63.8991 25 65.625C25 67.3509 26.3991 68.75 28.125 68.75Z" stroke="#51CBB0" stroke-width="2" stroke-linecap="round" stroke-linejoin="round"/>
<path d="M62.5 68.75C64.2259 68.75 65.625 67.3509 65.625 65.625C65.625 63.8991 64.2259 62.5 62.5 62.5C60.7741 62.5 59.375 63.8991 59.375 65.625C59.375 67.3509 60.7741 68.75 62.5 68.75Z" stroke="#51CBB0" stroke-width="2" stroke-linecap="round" stroke-linejoin="round"/>
<path d="M3.125 3.125H15.625L24 44.9688C24.2858 46.4075 25.0685 47.6999 26.2111 48.6197C27.3537 49.5395 28.7834 50.0281 30.25 50H60.625C62.0916 50.0281 63.5213 49.5395 64.6639 48.6197C65.8065 47.6999 66.5892 46.4075 66.875 44.9688L71.875 18.75H18.75" stroke="#51CBB0" stroke-width="2" stroke-linecap="round" stroke-linejoin="round"/>
</svg>
