<svg width="159" height="29" viewBox="0 0 159 29" fill="none" xmlns="http://www.w3.org/2000/svg">
<path d="M147.371 0.518066C146.388 0.518066 145.474 0.518066 144.491 0.518066C143.577 0.518066 143.226 0.869372 143.226 1.78276C143.226 2.69615 143.226 3.60953 143.226 4.52292V10.5653L142.594 10.0735C141.189 8.87907 139.502 8.31699 137.254 8.31699C137.184 8.31699 137.043 8.31699 136.973 8.31699C134.163 8.38725 131.844 9.51142 130.158 11.6895C128.401 13.8676 127.769 16.5375 128.19 19.6289C128.893 24.2661 132.476 27.4981 136.973 27.5684C137.043 27.5684 137.043 27.5684 137.113 27.5684C139.643 27.5684 141.47 26.8658 142.945 25.4606L143.086 25.3201L143.577 25.4606L143.648 25.9524C143.648 26.8658 143.929 27.1468 144.842 27.1468H145.053C145.826 27.1468 146.599 27.1468 147.442 27.1468C148.215 27.1468 148.496 26.8658 148.496 26.0929C148.496 25.9524 148.496 25.8119 148.496 25.6714V5.78761C148.496 4.45266 148.496 3.04745 148.496 1.71249C148.566 0.799107 148.215 0.518066 147.371 0.518066ZM142.242 21.2449C141.61 22.1583 140.556 22.7204 139.151 22.9312C138.87 23.0015 138.589 23.0015 138.308 23.0015C135.849 23.0015 134.022 21.4557 133.53 18.9263C133.46 18.7156 133.46 18.5048 133.46 18.2237C133.46 18.1535 133.46 18.013 133.46 17.9427C133.46 15.6241 134.725 13.7973 136.692 13.0947C139.01 12.3218 142.032 13.165 142.875 15.7646C143.577 17.8724 143.367 19.6992 142.242 21.2449Z" fill="#1A1A1A"/>
<path d="M44.2997 10.4249C44.2295 9.86281 43.9484 9.58177 43.3161 9.58177C42.3324 9.58177 41.3488 9.58177 40.2949 9.58177C39.6625 9.58177 39.3815 9.86282 39.3112 10.4952C39.3112 10.5654 39.3112 10.7059 39.3112 10.7762L39.2409 11.7599L38.6789 11.268C36.9224 9.7223 35.4469 9.23047 33.058 9.23047H32.9878C29.1234 9.23047 26.313 11.0572 24.697 14.5703C23.7836 16.4673 23.5728 18.6454 23.9944 20.8937C24.5565 23.6339 26.0319 25.8822 28.2803 27.2172C30.5989 28.5521 33.4093 28.8332 36.1495 27.9198C36.9926 27.6387 37.8357 27.1469 38.6086 26.374L39.1707 25.8822L39.2409 26.7253C39.2409 26.7956 39.2409 26.8659 39.2409 26.8659C39.3112 27.7792 39.522 28.0603 40.4354 28.0603C41.3488 28.0603 42.1919 28.0603 43.1053 28.0603C43.8781 28.0603 44.1592 27.8495 44.2295 27.0064C44.2295 26.8659 44.2295 26.7253 44.2295 26.5146C44.2295 21.3855 44.2295 16.1863 44.2295 11.0572C44.37 10.9167 44.37 10.6357 44.2997 10.4249ZM38.6789 20.964C37.9763 22.861 36.3603 23.8447 34.1119 23.9149C34.1119 23.9149 34.1119 23.9149 34.0417 23.9149C31.3015 23.9149 29.2639 21.9476 29.1937 19.1372C29.1234 17.0294 29.8963 15.4837 31.442 14.5C33.058 13.5164 34.8848 13.4461 36.6413 14.3595C38.1168 15.1324 38.8896 16.4673 38.9599 18.5049C39.1004 19.348 38.9599 20.1911 38.6789 20.964Z" fill="#1A1A1A"/>
<path d="M109.712 8.73846C109.15 8.73846 108.658 8.73846 108.096 8.73846H107.464C106.059 8.73846 105.988 8.80872 105.777 10.1437L105.707 10.495L105.215 10.4247L105.075 10.2842C103.67 8.94924 101.843 8.31689 99.454 8.31689C96.3625 8.31689 93.9034 9.58159 92.1469 11.9705C90.6012 14.1485 90.0391 16.6779 90.3904 19.6289C91.0227 24.1255 94.7465 27.4278 99.3135 27.498C101.702 27.498 103.599 26.8657 105.075 25.5307L105.215 25.3902L105.777 25.4605L105.848 25.8118C105.848 25.9523 105.848 25.9523 105.848 26.0226C105.918 26.8657 106.129 27.1467 107.042 27.1467H107.323C108.166 27.1467 109.009 27.1467 109.853 27.1467C110.555 27.1467 110.836 26.7954 110.836 26.1631C110.836 20.6828 110.836 15.2024 110.836 9.72211C110.766 9.08976 110.415 8.73846 109.712 8.73846ZM105.215 19.6289C104.653 21.7367 102.967 22.9311 100.578 22.9311H100.508C99.173 22.9311 97.9083 22.4393 97.0651 21.5259C96.1518 20.5422 95.6599 19.2073 95.6599 17.6616C95.7302 15.5537 96.6436 14.0783 98.4001 13.2351C99.7351 12.6028 101.492 12.6028 102.827 13.2351C104.021 13.7972 104.864 14.7809 105.215 16.1861C105.567 17.3805 105.567 18.575 105.215 19.6289Z" fill="#1A1A1A"/>
<path d="M85.8234 8.73846C85.2613 8.73846 84.7695 8.73846 84.2074 8.73846H83.575C82.1698 8.73846 82.0996 8.80872 81.8888 10.1437L81.8185 10.495L81.3267 10.4247L81.1862 10.2842C79.781 8.94924 77.9542 8.31689 75.6356 8.31689C72.5441 8.31689 70.085 9.5816 68.3285 11.9705C66.7827 14.1485 66.1504 16.6779 66.572 19.6289C67.2043 24.1256 70.9281 27.4278 75.4951 27.4981C77.8839 27.5683 79.781 26.8657 81.2564 25.5308L81.3969 25.3902L81.959 25.4605L82.0293 25.8118C82.0293 25.9523 82.0293 25.9523 82.0293 26.0226C82.0996 26.8657 82.3103 27.1468 83.2237 27.1468H83.5048C84.3479 27.1468 85.191 27.1468 86.0342 27.1468C86.7368 27.1468 87.0178 26.7955 87.0178 26.1631C87.0178 20.6828 87.0178 15.2024 87.0178 9.72211C86.8773 9.08976 86.526 8.73846 85.8234 8.73846ZM81.3969 19.6289C80.8349 21.7367 79.1486 22.9311 76.7597 22.9311H76.6895C75.3545 22.9311 74.0898 22.4393 73.2467 21.5259C72.3333 20.5423 71.8415 19.2073 71.8415 17.6616C71.9118 15.5537 72.8251 14.0783 74.5817 13.2351C75.9166 12.6028 77.6731 12.6028 79.0081 13.2351C80.2025 13.7972 81.0456 14.7809 81.3969 16.1861C81.678 17.3805 81.678 18.575 81.3969 19.6289Z" fill="#1A1A1A"/>
<path d="M63.621 24.1257C61.8645 24.1257 60.108 24.1257 58.3514 24.1257H55.4708L58.3514 20.4019C60.1782 18.0833 62.005 15.6945 63.8318 13.3759C64.3236 12.7435 64.5344 12.1815 64.4641 11.4789C64.4641 11.2681 64.4641 11.0573 64.4641 10.9168V10.6357C64.4641 9.58182 64.1831 9.30078 63.1292 9.30078H49.9904C49.8499 9.30078 49.7094 9.30078 49.6391 9.30078C49.1473 9.37104 48.8663 9.65208 48.796 10.1439C48.7257 10.987 48.7257 11.9004 48.796 12.6733C48.8663 13.0949 49.077 13.3759 49.4986 13.4461C49.7094 13.4461 49.9202 13.5164 50.2012 13.5164H56.2436C56.3841 13.5164 56.4544 13.5164 56.5949 13.5164L57.5083 13.5867L54.8384 16.9592C52.9414 19.348 51.1146 21.7369 49.2176 24.196C48.6555 24.8986 48.3744 25.6715 48.4447 26.4443C48.4447 26.6551 48.4447 26.7956 48.4447 27.0064V27.2875C48.4447 28.2711 48.7257 28.5522 49.6391 28.5522H57.2975H58.9838H60.2485C61.4429 28.5522 62.5671 28.5522 63.7615 28.5522C64.3938 28.5522 64.6749 28.2711 64.7451 27.6388C64.8154 26.7956 64.8154 26.0228 64.7451 25.3904C64.7451 24.4068 64.4641 24.1257 63.621 24.1257Z" fill="#1A1A1A"/>
<path d="M125.942 8.3168C123.764 8.24654 122.007 8.94915 120.602 10.4246L120.04 10.9867L119.97 10.2138C119.97 10.0733 119.97 9.9328 119.97 9.79228C119.97 9.65176 119.97 9.51123 119.9 9.37071C119.759 8.80863 119.478 8.59785 118.986 8.59785C118.424 8.59785 117.932 8.59785 117.37 8.59785C116.808 8.59785 116.316 8.59785 115.824 8.59785C115.333 8.59785 115.052 8.87889 114.911 9.44098C114.911 9.65176 114.841 9.86254 114.841 10.0733C114.841 15.4131 114.841 20.8232 114.841 26.163C114.841 26.3738 114.841 26.5846 114.911 26.7954C114.981 27.2872 115.262 27.5682 115.754 27.5682C116.668 27.5682 117.581 27.5682 118.565 27.5682H119.267C119.337 27.5682 119.408 27.5682 119.548 27.498C119.97 27.3574 120.251 27.0764 120.251 26.163C120.251 24.8983 120.251 23.5634 120.251 22.2987V18.6451C120.251 18.0128 120.251 17.3804 120.391 16.6778C120.743 14.7808 121.726 13.6566 123.553 13.3053C124.326 13.1648 125.099 13.1648 125.872 13.1648C126.504 13.1648 126.645 13.0243 126.715 12.3919C126.785 11.4083 126.785 10.3544 126.715 9.01941C126.715 8.52758 126.504 8.3168 125.942 8.3168Z" fill="#1A1A1A"/>
<path d="M17.5302 14.2191L17.1086 14.0083L17.5302 13.5868C17.6004 13.5165 17.6707 13.4463 17.6707 13.4463C19.1462 12.1816 19.919 10.144 19.7785 8.03619C19.638 5.85811 18.5138 4.03134 16.8276 2.97743C15.4224 2.1343 13.8064 1.64248 12.1201 1.57222C9.94203 1.50196 7.69369 1.50195 5.51562 1.50195C4.39145 1.50195 3.19702 1.50195 2.07285 1.50195C2.00259 1.50195 1.93232 1.50195 1.7918 1.50195C1.29998 1.57221 1.01894 1.78299 0.948677 2.34508C0.948677 2.55586 0.878418 2.8369 0.878418 3.04768C0.878418 9.65218 0.878418 16.3269 0.878418 22.9314V27.0066C0.878418 27.0768 0.878418 27.1471 0.878418 27.2876C0.948679 28.201 1.22972 28.482 2.07285 28.482H12.893C14.0874 28.482 15.2116 28.2712 16.3357 27.9199C18.303 27.2173 19.8488 25.8824 20.6216 24.1259C21.535 22.1586 21.535 19.84 20.7622 17.8024C20.2703 16.2567 19.2164 15.1325 17.5302 14.2191ZM6.429 6.49046C6.56952 6.34994 6.85057 6.27968 6.99109 6.34994C7.48291 6.34994 8.045 6.34994 8.60708 6.34994H9.37995C9.59073 6.34994 9.87177 6.34994 10.1528 6.34994C10.7149 6.34994 11.4175 6.34994 12.0498 6.49046C13.6658 6.84176 14.509 7.89567 14.509 9.4414C14.509 10.9871 13.5253 12.041 11.9796 12.3923C11.4878 12.4626 11.0662 12.5329 10.5744 12.5329C10.3636 12.5329 10.2231 12.5329 10.0123 12.5329C9.73125 12.5329 9.45021 12.5329 9.23942 12.5329C8.88812 12.5329 8.53682 12.5329 8.18552 12.5329C7.76395 12.5329 7.41265 12.5329 6.99109 12.5329C6.85057 12.5329 6.63979 12.5329 6.49927 12.3923C6.35874 12.2518 6.28848 12.041 6.28848 11.8303C6.28848 10.2845 6.28848 8.7388 6.28848 7.19307C6.21822 6.91202 6.21822 6.70124 6.429 6.49046ZM15.4926 22.018C15.0008 22.7207 14.2982 23.2125 13.3848 23.4233C13.0335 23.4935 12.6119 23.4935 12.1904 23.4935H11.558C10.0826 23.4935 8.53682 23.4935 7.06135 23.4935C6.85057 23.4935 6.63979 23.4935 6.49927 23.2827C6.28848 23.072 6.28848 22.8612 6.28848 22.6504C6.28848 21.1047 6.28848 19.5589 6.28848 17.9429C6.28848 17.7322 6.28848 17.4511 6.49927 17.3106C6.71005 17.0998 6.92083 17.0998 7.13161 17.0998C7.83421 17.0998 8.46656 17.0998 9.16916 17.0998H10.3636H10.9257C11.6283 17.0998 12.2606 17.0998 12.9632 17.0998C14.4387 17.1701 15.6331 18.0132 15.9844 19.3482C16.125 20.4021 15.9844 21.3154 15.4926 22.018Z" fill="#F2D12D"/>
<path d="M154.468 21.737C153.344 22.0883 152.711 23.072 152.711 24.4069V24.6177C152.711 24.7582 152.711 24.8987 152.782 24.969C153.063 26.5147 154.257 27.3579 155.873 27.1471C156.646 27.0066 157.208 26.7958 157.489 26.304C158.122 25.3906 158.262 24.4069 157.84 23.2125C157.278 21.5965 155.522 21.3857 154.468 21.737Z" fill="#1A1A1A"/>
</svg>
