<svg width="172" height="34" viewBox="0 0 172 34" fill="none" xmlns="http://www.w3.org/2000/svg">
<path d="M0.6875 34V0.484375H16.3906C22.7656 0.484375 25.9531 3.08594 25.9531 8.28906C25.9531 12.1016 23.875 14.8281 19.7188 16.4688C24.1562 17.2969 26.375 19.8359 26.375 24.0859C26.375 30.6953 22.8828 34 15.8984 34H0.6875ZM15.6406 28.6094C18.3906 28.6094 19.7656 27.2031 19.7656 24.3906C19.7656 20.9062 17.7109 19.1641 13.6016 19.1641H11.7266V15.1562C16.8828 14.2969 19.4609 12.1406 19.4609 8.6875C19.4609 6.8125 18.3047 5.875 15.9922 5.875H6.89844V28.6094H15.6406Z" fill="#FAE053"/>
<path d="M29.9141 26.3359C29.9141 21.4453 33.4766 19 40.6016 19C42.2734 19 43.9453 19.1562 45.6172 19.4688V17.6172C45.6172 15.4141 44.0312 14.3125 40.8594 14.3125C38.1719 14.3125 35.1875 14.7031 31.9062 15.4844V10.5625C35.1875 9.78125 38.1719 9.39062 40.8594 9.39062C48.1719 9.39062 51.8281 12.0938 51.8281 17.5V34H48.2188L46.0156 31.7969C43.875 33.2656 41.5156 34 38.9375 34C32.9219 34 29.9141 31.4453 29.9141 26.3359ZM45.6172 23.6875C44.0547 23.375 42.3828 23.2188 40.6016 23.2188C37.6172 23.2188 36.125 24.2344 36.125 26.2656C36.125 28.4531 37.375 29.5469 39.875 29.5469C41.9375 29.5469 43.8516 28.9062 45.6172 27.625V23.6875ZM57.5938 9.39062H76.5781V14.3125L63.9922 29.3125H76.1094V34H57.125V29.3125L69.8984 14.3125H57.5938V9.39062ZM79.7422 26.3359C79.7422 21.4453 83.3047 19 90.4297 19C92.1016 19 93.7734 19.1562 95.4453 19.4688V17.6172C95.4453 15.4141 93.8594 14.3125 90.6875 14.3125C88 14.3125 85.0156 14.7031 81.7344 15.4844V10.5625C85.0156 9.78125 88 9.39062 90.6875 9.39062C98 9.39062 101.656 12.0938 101.656 17.5V34H98.0469L95.8438 31.7969C93.7031 33.2656 91.3438 34 88.7656 34C82.75 34 79.7422 31.4453 79.7422 26.3359ZM95.4453 23.6875C93.8828 23.375 92.2109 23.2188 90.4297 23.2188C87.4453 23.2188 85.9531 24.2344 85.9531 26.2656C85.9531 28.4531 87.2031 29.5469 89.7031 29.5469C91.7656 29.5469 93.6797 28.9062 95.4453 27.625V23.6875ZM106.367 26.3359C106.367 21.4453 109.93 19 117.055 19C118.727 19 120.398 19.1562 122.07 19.4688V17.6172C122.07 15.4141 120.484 14.3125 117.312 14.3125C114.625 14.3125 111.641 14.7031 108.359 15.4844V10.5625C111.641 9.78125 114.625 9.39062 117.312 9.39062C124.625 9.39062 128.281 12.0938 128.281 17.5V34H124.672L122.469 31.7969C120.328 33.2656 117.969 34 115.391 34C109.375 34 106.367 31.4453 106.367 26.3359ZM122.07 23.6875C120.508 23.375 118.836 23.2188 117.055 23.2188C114.07 23.2188 112.578 24.2344 112.578 26.2656C112.578 28.4531 113.828 29.5469 116.328 29.5469C118.391 29.5469 120.305 28.9062 122.07 27.625V23.6875ZM134.164 34V9.39062H138.969L139.742 12.5312C141.898 10.4375 144.18 9.39062 146.586 9.39062V14.4062C144.273 14.4062 142.203 15.3672 140.375 17.2891V34H134.164ZM165.688 15.8125C164.406 14.9688 162.797 14.5469 160.859 14.5469C157 14.5469 155.07 16.7109 155.07 21.0391C155.07 26.1797 157.078 28.75 161.094 28.75C162.719 28.75 164.25 28.5234 165.688 28.0703V15.8125ZM171.898 32.5234C168.133 33.5078 164.453 34 160.859 34C152.906 34 148.93 29.7344 148.93 21.2031C148.93 13.3281 152.82 9.39062 160.602 9.39062C162.258 9.39062 163.953 9.78125 165.688 10.5625V0.484375H171.898V32.5234Z" fill="black"/>
</svg>
