<svg width="1440" height="1000" viewBox="0 0 1440 1000" fill="none" xmlns="http://www.w3.org/2000/svg">
<path fill-rule="evenodd" clip-rule="evenodd" d="M881.545 1000H949.292C970.293 970.147 987.449 944.959 1000.76 924.437C1003.99 919.465 1006.99 914.768 1009.76 910.345C1014.08 894.174 1018.34 878.275 1022.54 862.649C1018.52 865.419 1013.59 869.29 1007.74 874.267C994.491 885.548 976.583 902.477 954.013 925.062C933.647 945.442 909.491 970.422 881.545 1000ZM968.01 1000H950.515C971.337 970.39 988.366 945.384 1001.6 924.981C1004.17 921.017 1006.6 917.227 1008.89 913.61C1003.83 932.51 998.688 951.782 993.457 971.424C985.335 980.484 976.853 990.009 968.01 1000ZM969.345 1000H985.853C988.216 991.112 990.561 982.298 992.889 973.556C985.349 981.973 977.502 990.787 969.345 1000ZM1038.95 1000H986.888C989.399 990.555 991.89 981.193 994.361 971.913C1014.91 948.992 1033.15 929.059 1049.07 912.115C1071.64 888.092 1089.55 870.085 1102.8 858.086C1103.28 857.65 1103.75 857.221 1104.22 856.801C1100 877.056 1095.67 897.774 1091.23 918.955C1077.44 941.27 1060.02 968.285 1038.95 1000ZM1040.15 1000H1074.17C1079.81 973.281 1085.3 947.224 1090.62 921.829C1077.15 943.562 1060.32 969.619 1040.15 1000ZM1138.93 1000H1075.19C1081.02 972.404 1086.68 945.515 1092.17 919.332C1093.71 916.84 1095.2 914.407 1096.65 912.032C1111.3 888.005 1121.32 869.962 1126.68 857.918C1129.35 851.907 1130.89 847.343 1131.25 844.258C1131.43 842.724 1131.32 841.471 1130.84 840.583C1130.33 839.643 1129.44 839.196 1128.3 839.196C1127.2 839.196 1125.84 839.609 1124.24 840.371C1122.64 841.138 1120.75 842.281 1118.58 843.791C1115.08 846.232 1110.83 849.654 1105.82 854.05C1143.12 675.006 1171.77 532.26 1191.76 425.814C1206.41 347.781 1216.41 289.248 1221.76 250.22C1224.43 230.709 1225.95 216.057 1226.29 206.277C1226.47 201.393 1226.35 197.694 1225.93 195.204C1225.73 193.964 1225.44 192.98 1225.04 192.294C1224.65 191.602 1224.09 191.129 1223.34 191.129C1222.65 191.129 1221.96 191.546 1221.3 192.181C1220.61 192.83 1219.88 193.781 1219.08 195.016C1217.49 197.487 1215.61 201.173 1213.46 206.058C1209.14 215.832 1203.67 230.48 1197.03 249.991C1183.76 289.018 1165.84 347.55 1143.27 425.583C1112.05 533.482 1071.94 678.678 1022.94 861.171C1018.71 864.004 1013.42 868.118 1007.09 873.505C993.813 884.812 975.882 901.764 953.306 924.355C932.775 944.901 908.396 970.116 880.169 1000H789.71C797.207 964.044 804.425 929.269 811.366 895.676L811.531 895.386C826.185 869.51 836.197 850.082 841.555 837.115C844.231 830.641 845.765 825.734 846.12 822.423C846.296 820.777 846.191 819.446 845.716 818.506C845.474 818.026 845.133 817.646 844.69 817.389C844.249 817.134 843.736 817.019 843.172 817.019C842.063 817.019 840.696 817.467 839.101 818.287C837.495 819.113 835.608 820.344 833.442 821.97C831.025 823.786 828.247 826.105 825.11 828.925C860.265 657.571 887.439 520.12 906.63 416.572C921.283 337.513 931.284 278.21 936.632 238.668C939.305 218.9 940.818 204.057 941.165 194.149C941.339 189.2 941.223 185.454 940.806 182.932C940.599 181.676 940.31 180.682 939.917 179.988C939.522 179.289 938.963 178.808 938.215 178.808C937.52 178.808 936.831 179.232 936.165 179.875C935.484 180.531 934.746 181.495 933.951 182.745C932.358 185.249 930.484 188.983 928.327 193.932C924.011 203.834 918.536 218.674 911.902 238.442C898.631 277.982 880.709 337.284 858.136 416.344C821.639 544.169 772.979 723.659 712.156 954.813C700.479 968.808 688.035 983.87 674.823 1000H616.435C660.718 868.904 694.084 766.235 716.531 691.993C731.184 643.529 741.188 607.168 746.539 582.918C749.213 570.797 750.73 561.679 751.079 555.579C751.253 552.537 751.14 550.2 750.71 548.606C750.495 547.808 750.19 547.154 749.764 546.693C749.324 546.216 748.771 545.964 748.13 545.964C747.511 545.964 746.854 546.199 746.172 546.602C745.487 547.007 744.742 547.603 743.94 548.376C742.336 549.921 740.453 552.222 738.292 555.261C733.968 561.343 728.487 570.449 721.851 582.57C708.577 606.815 690.652 643.173 668.078 691.637C633.466 765.945 587.916 868.734 531.429 1000H504.171C557.121 742.129 596.231 543.956 621.502 405.482C636.154 325.191 646.156 264.964 651.503 224.806C654.177 204.731 655.689 189.656 656.037 179.595C656.21 174.569 656.094 170.766 655.678 168.206C655.47 166.932 655.182 165.923 654.79 165.221C654.397 164.514 653.839 164.023 653.087 164.023C652.389 164.023 651.699 164.455 651.034 165.107C650.353 165.774 649.616 166.752 648.82 168.021C647.228 170.563 645.354 174.355 643.197 179.38C638.882 189.437 633.407 204.508 626.772 224.584C613.502 264.74 595.58 324.966 573.007 405.257C556.003 465.739 536.359 537.611 514.074 620.872C503.773 641.236 491.746 666.056 477.993 695.332C443.477 768.806 398.083 870.363 341.813 1000H320.219C370.063 802.727 407.127 650.147 431.412 542.262C446.065 477.165 456.067 428.333 461.415 395.771C464.089 379.493 465.603 367.264 465.951 359.096C466.125 355.018 466.01 351.917 465.589 349.822C465.379 348.778 465.085 347.938 464.68 347.349C464.263 346.742 463.702 346.369 463.001 346.369C462.34 346.369 461.663 346.704 460.987 347.24C460.302 347.784 459.561 348.582 458.763 349.615C457.165 351.683 455.287 354.763 453.129 358.84C448.811 367 443.333 379.223 436.698 395.501C423.427 428.061 405.504 476.892 382.93 541.988C345.502 649.923 295.282 802.594 232.271 1000H214.433C269.729 674.088 310.377 424.779 336.376 252.074C351.028 154.74 361.029 81.7316 366.376 33.0546C367.767 20.3929 368.843 9.37432 369.605 2.83762e-10L1440 6.18456e-10V932.476C1436.32 935.766 1432.5 939.214 1428.54 942.82C1410.99 958.78 1390.64 977.84 1367.48 1000H1265.93C1278.09 943.779 1289.51 890.574 1300.2 840.385C1307.73 824.621 1313.26 811.973 1316.78 802.445C1319.45 795.201 1320.98 789.721 1321.33 786.033C1321.51 784.198 1321.4 782.734 1320.94 781.708C1320.7 781.186 1320.37 780.764 1319.93 780.476C1319.48 780.189 1318.96 780.057 1318.39 780.057C1317.26 780.057 1315.89 780.563 1314.29 781.481C1313.72 781.814 1313.1 782.206 1312.45 782.657C1341.79 643.847 1364.92 530.444 1381.84 442.449C1396.5 366.264 1406.5 309.117 1411.85 271.013C1414.52 251.963 1416.03 237.658 1416.38 228.108C1416.55 223.339 1416.44 219.726 1416.02 217.292C1415.81 216.08 1415.52 215.118 1415.13 214.445C1414.73 213.765 1414.17 213.306 1413.43 213.306C1412.74 213.306 1412.05 213.711 1411.39 214.332C1410.7 214.966 1409.97 215.896 1409.17 217.101C1407.58 219.515 1405.7 223.115 1403.54 227.884C1399.23 237.428 1393.75 251.729 1387.12 270.779C1373.85 308.881 1355.93 366.028 1333.35 442.212C1299.2 557.47 1254.4 716.318 1198.95 918.753C1180.95 942.725 1160.94 969.807 1138.93 1000ZM1140.17 1000H1176.76C1184.09 973.102 1191.25 946.894 1198.23 921.375C1180.74 944.683 1161.39 970.891 1140.17 1000ZM1214.51 1000H1177.8C1185.33 972.337 1192.69 945.404 1199.87 919.201C1214.25 900.055 1227.36 882.896 1239.18 867.725C1261.75 838.775 1279.66 817.072 1292.92 802.61C1299.54 795.378 1305 789.967 1309.28 786.369C1309.85 785.889 1310.4 785.443 1310.92 785.029C1307.14 802.951 1303.24 821.295 1299.25 840.06C1295.33 848.258 1290.87 857.301 1285.86 867.192C1268.57 901.37 1244.78 945.639 1214.51 1000ZM1215.66 1000H1264.91C1276.76 945.206 1287.91 893.275 1298.36 844.209C1294.89 851.41 1291.02 859.221 1286.76 867.643C1269.5 901.734 1245.8 945.853 1215.66 1000ZM1368.92 1000H1433.45C1435.68 997.094 1437.87 994.241 1440 991.442V933.818C1436.53 936.925 1432.93 940.173 1429.21 943.56C1411.86 959.34 1391.77 978.153 1368.92 1000ZM1440 993.091C1438.27 995.359 1436.51 997.662 1434.71 1000H1440V993.091ZM352.037 7.80346e-10L368.602 0C367.842 9.3417 366.769 20.3231 365.382 32.9453C360.037 81.6017 350.039 154.594 335.387 251.926C309.385 424.65 268.729 674.008 213.419 1000H126.913C134.184 968.086 141.189 937.205 147.927 907.357C161.656 884.53 171.101 867.277 176.251 855.607C178.926 849.544 180.464 844.942 180.819 841.832C180.996 840.285 180.892 839.024 180.41 838.13C179.9 837.184 179.013 836.732 177.872 836.732C176.77 836.732 175.408 837.149 173.813 837.917C172.208 838.691 170.32 839.843 168.155 841.366C166.218 842.729 164.05 844.393 161.651 846.359C195.914 693.511 222.474 570.58 241.328 477.568C250.289 433.363 257.511 395.913 262.992 365.219C272.199 324.438 280.817 286.736 288.847 252.113C311.419 154.781 329.337 81.7886 342.601 33.1315C346.064 20.426 349.21 9.38254 352.037 7.80346e-10ZM350.993 1.9354e-09L0 6.18456e-10V1000H16.6234C27.8231 987.233 38.4473 975.216 48.496 963.947C108.556 755.348 156.671 593.138 192.84 477.319C215.413 405.036 233.335 350.816 246.606 314.663C253.241 296.589 258.717 283.019 263.034 273.962C265.191 269.436 267.067 266.019 268.662 263.727C269.459 262.582 270.198 261.699 270.881 261.096C271.553 260.505 272.237 260.124 272.915 260.124C273.641 260.124 274.202 260.553 274.607 261.208C275.006 261.852 275.297 262.771 275.505 263.924C275.923 266.238 276.039 269.67 275.865 274.196C275.518 283.26 274.005 296.835 271.331 314.909C269.994 323.947 268.366 334.114 266.448 345.41C274.003 312.074 281.144 280.9 287.873 251.887C310.446 154.552 328.367 81.5447 341.636 32.8684C345.065 20.2898 348.184 9.33329 350.993 1.9354e-09ZM17.9538 1000H38.1294C41.4059 988.59 44.6484 977.313 47.8569 966.167C38.3946 976.787 28.4269 988.064 17.9538 1000ZM87.7999 1000H39.1699C42.6156 988.002 46.0236 976.149 49.394 964.443C67.7291 943.884 84.1443 925.825 98.6398 910.265C121.21 886.037 139.118 867.876 152.37 855.774C153.288 854.936 154.183 854.127 155.056 853.347C150.675 873.774 146.227 894.551 141.711 915.679C127.63 938.723 109.66 966.829 87.7999 1000ZM88.9975 1000H123.731C129.621 972.321 135.404 945.195 141.083 918.621C127.302 941.085 109.941 968.212 88.9975 1000ZM125.887 1000H124.753C130.833 971.43 136.799 943.448 142.654 916.055C143.873 914.06 145.063 912.102 146.223 910.183L146.289 910.075C139.738 939.078 132.938 969.054 125.887 1000ZM233.321 1000H319.188C369.062 802.612 406.144 649.96 430.436 542.042C445.088 476.95 455.085 428.141 460.429 395.609C463.101 379.339 464.607 367.159 464.952 359.053C465.125 354.994 465.005 351.992 464.608 350.019C464.41 349.029 464.15 348.343 463.856 347.915C463.574 347.505 463.29 347.369 463.001 347.369C462.672 347.369 462.214 347.543 461.609 348.024C461.013 348.497 460.328 349.225 459.554 350.226C458.008 352.227 456.161 355.249 454.013 359.308C449.718 367.423 444.256 379.609 437.624 395.879C424.363 428.413 406.447 477.224 383.875 542.316C346.47 650.184 296.285 802.745 233.321 1000ZM342.903 1000H414.64C451.629 856.797 484.352 731.999 512.807 625.607C503.002 645.124 491.699 668.507 478.898 695.757C444.423 769.144 399.092 870.558 342.903 1000ZM425.662 1000H415.673C453.173 854.819 486.287 728.563 515.013 621.231C521.597 608.219 527.473 597.032 532.642 587.672C539.272 575.665 544.731 566.675 549.02 560.693C551.166 557.7 553.008 555.477 554.547 554.006C555.316 553.271 555.998 552.736 556.594 552.387C557.193 552.036 557.671 551.892 558.044 551.892C558.395 551.892 558.686 552.018 558.945 552.296C559.218 552.589 559.466 553.066 559.659 553.776C560.046 555.197 560.168 557.383 559.995 560.373C559.651 566.337 558.149 575.314 555.477 587.322C550.135 611.327 540.14 647.35 525.489 695.398C503.09 768.853 469.815 870.386 425.662 1000ZM426.719 1000H503.151C556.12 742.034 595.243 543.802 620.518 405.303C635.17 325.015 645.168 264.807 650.512 224.674C653.185 204.605 654.692 189.571 655.037 179.56C655.21 174.55 655.091 170.826 654.691 168.367C654.49 167.133 654.224 166.259 653.917 165.707C653.612 165.159 653.325 165.023 653.087 165.023C652.795 165.023 652.349 165.218 651.733 165.821C651.133 166.409 650.445 167.312 649.668 168.552C648.117 171.028 646.266 174.764 644.116 179.775C639.818 189.791 634.354 204.828 627.722 224.897C614.459 265.031 596.542 325.24 573.97 405.528C557.279 464.896 538.044 535.24 516.264 616.559C521.992 605.323 527.159 595.532 531.766 587.189C538.403 575.171 543.884 566.141 548.208 560.111C550.368 557.097 552.252 554.816 553.856 553.283C554.658 552.517 555.402 551.926 556.088 551.524C556.769 551.125 557.426 550.892 558.044 550.892C558.683 550.892 559.236 551.142 559.677 551.615C560.103 552.072 560.409 552.721 560.624 553.514C561.054 555.096 561.167 557.414 560.993 560.431C560.644 566.479 559.127 575.521 556.453 587.539C551.102 611.584 541.098 647.637 526.445 695.69C504.06 769.098 470.818 870.535 426.719 1000ZM532.517 1000H615.379C659.715 868.757 693.113 765.992 715.574 691.703C730.226 643.244 740.22 606.914 745.562 582.702C748.234 570.592 749.737 561.538 750.081 555.522C750.253 552.507 750.131 550.3 749.745 548.866C749.551 548.15 749.303 547.668 749.029 547.371C748.77 547.09 748.479 546.964 748.13 546.964C747.758 546.964 747.28 547.108 746.681 547.462C746.086 547.814 745.404 548.354 744.634 549.096C743.095 550.579 741.253 552.822 739.107 555.84C734.818 561.874 729.359 570.94 722.728 583.05C709.47 607.266 691.556 643.6 668.984 692.059C634.413 766.281 588.924 868.927 532.517 1000ZM676.116 1000H700.283C704.086 985.506 707.843 971.204 711.556 957.094C700.432 970.436 688.619 984.739 676.116 1000ZM747.745 1000H701.317C705.283 984.885 709.199 969.979 713.066 955.282C732.063 932.515 749.025 912.577 763.951 895.468C786.521 869.598 804.43 850.205 817.682 837.282C819.739 835.276 821.682 833.428 823.513 831.735C819.264 852.438 814.899 873.632 810.418 895.32C794.788 922.899 773.897 957.792 747.745 1000ZM748.921 1000H788.688C795.975 965.051 802.999 931.219 809.761 898.502C794.365 925.545 774.085 959.378 748.921 1000ZM1011.57 907.444C1015.71 891.976 1019.79 876.76 1023.81 861.794C1023.91 861.728 1024 861.663 1024.1 861.599C1026.24 860.195 1028.08 859.151 1029.62 858.46C1031.17 857.765 1032.37 857.445 1033.26 857.445C1034.11 857.445 1034.62 857.738 1034.92 858.254C1035.25 858.818 1035.38 859.744 1035.21 861.12C1034.88 863.857 1033.4 868.03 1030.73 873.672C1026.83 881.905 1020.45 893.161 1011.57 907.444ZM1010.69 910.749C1005.53 930.039 1000.27 949.717 994.929 969.783C1014.95 947.47 1032.75 928.019 1048.34 911.43C1070.91 887.401 1088.84 869.371 1102.13 857.345C1102.61 856.908 1103.08 856.48 1103.55 856.06C1103.89 855.754 1104.23 855.453 1104.57 855.155C1142 675.502 1170.74 532.327 1190.78 425.629C1205.43 347.6 1215.43 289.087 1220.77 250.084C1223.44 230.58 1224.95 215.969 1225.29 206.242C1225.47 201.373 1225.35 197.756 1224.95 195.369C1224.75 194.171 1224.48 193.325 1224.18 192.792C1223.88 192.265 1223.59 192.129 1223.34 192.129C1223.05 192.129 1222.6 192.321 1221.99 192.905C1221.39 193.476 1220.7 194.353 1219.92 195.557C1218.37 197.963 1216.52 201.592 1214.37 206.461C1210.07 216.195 1204.61 230.809 1197.98 250.313C1184.71 289.317 1166.8 347.831 1144.23 425.86C1113.08 533.539 1073.07 678.367 1024.19 860.347C1026.09 859.131 1027.77 858.196 1029.21 857.548C1030.81 856.831 1032.16 856.445 1033.26 856.445C1034.38 856.445 1035.27 856.858 1035.79 857.754C1036.28 858.601 1036.38 859.793 1036.2 861.241C1035.85 864.151 1034.31 868.448 1031.63 874.1C1027.46 882.908 1020.48 895.127 1010.69 910.749ZM1092.78 916.443C1097.12 895.747 1101.35 875.494 1105.48 855.684C1110.91 850.873 1115.47 847.184 1119.16 844.611C1121.3 843.118 1123.14 842.008 1124.67 841.274C1126.22 840.534 1127.42 840.196 1128.3 840.196C1129.14 840.196 1129.65 840.5 1129.96 841.061C1130.29 841.675 1130.42 842.675 1130.25 844.144C1129.92 847.065 1128.44 851.511 1125.77 857.512C1120.43 869.493 1110.45 887.489 1095.8 911.512C1094.81 913.128 1093.8 914.772 1092.78 916.443ZM1380.86 442.26C1363.9 530.475 1340.69 644.23 1311.24 783.525C1310.42 784.138 1309.55 784.83 1308.64 785.603C1304.3 789.243 1298.82 794.69 1292.18 801.934C1278.9 816.426 1260.97 838.154 1238.39 867.11C1226.98 881.751 1214.38 898.242 1200.58 916.583C1255.72 715.311 1300.3 557.283 1334.31 442.496C1356.88 366.315 1374.8 309.187 1388.06 271.107C1394.69 252.065 1400.16 237.798 1404.46 228.296C1406.6 223.543 1408.45 220 1410 217.652C1410.78 216.477 1411.47 215.621 1412.07 215.065C1412.68 214.496 1413.13 214.306 1413.43 214.306C1413.68 214.306 1413.97 214.442 1414.27 214.952C1414.57 215.47 1414.83 216.293 1415.03 217.461C1415.43 219.79 1415.55 223.319 1415.38 228.072C1415.03 237.568 1413.53 251.831 1410.86 270.873C1405.51 308.952 1395.51 366.079 1380.86 442.26ZM1301.1 836.162C1304.87 818.43 1308.55 801.077 1312.14 784.103C1313.11 783.394 1313.99 782.809 1314.79 782.347C1316.34 781.455 1317.53 781.057 1318.39 781.057C1318.8 781.057 1319.13 781.151 1319.38 781.316C1319.64 781.481 1319.86 781.738 1320.03 782.12C1320.38 782.904 1320.51 784.154 1320.34 785.938C1320 789.489 1318.51 794.866 1315.84 802.099C1312.62 810.815 1307.71 822.169 1301.1 836.162ZM840.631 836.733C835.465 849.234 825.934 867.81 812.028 892.474C816.385 871.375 820.633 850.744 824.77 830.581C828.308 827.359 831.399 824.756 834.043 822.77C836.184 821.162 838.021 819.967 839.559 819.176C841.107 818.38 842.302 818.019 843.172 818.019C843.599 818.019 843.931 818.106 844.189 818.255C844.445 818.403 844.658 818.629 844.824 818.957C845.166 819.635 845.296 820.73 845.126 822.317C844.787 825.475 843.302 830.27 840.631 836.733ZM905.647 416.39C886.407 520.199 859.143 658.09 823.856 830.062C821.722 832.011 819.431 834.18 816.984 836.566C803.703 849.517 785.773 868.934 763.197 894.81C748.625 911.514 732.115 930.911 713.666 953.003C774.235 722.849 822.712 544.054 859.098 416.618C881.67 337.562 899.587 278.278 912.85 238.76C919.482 218.999 924.946 204.193 929.244 194.331C931.394 189.397 933.244 185.72 934.795 183.282C935.571 182.062 936.26 181.173 936.859 180.594C937.474 180.001 937.92 179.808 938.215 179.808C938.458 179.808 938.743 179.944 939.047 180.481C939.354 181.022 939.619 181.881 939.82 183.095C940.22 185.515 940.339 189.18 940.166 194.114C939.82 203.97 938.313 218.773 935.641 238.534C930.296 278.05 920.299 337.334 905.647 416.39ZM270.342 314.762C268.266 328.79 265.49 345.544 262.011 365.022C232.519 495.656 196.985 657.88 155.411 851.693C154.215 852.751 152.977 853.866 151.695 855.036C138.414 867.165 120.484 885.349 97.9081 909.583C83.7733 924.756 67.8147 942.304 50.0326 962.225C109.823 754.592 157.744 593.057 193.794 477.617C216.366 405.338 234.283 351.136 247.545 315.008C254.177 296.941 259.64 283.406 263.937 274.392C266.086 269.883 267.935 266.523 269.483 264.298C270.258 263.184 270.945 262.374 271.543 261.846C272.152 261.309 272.604 261.124 272.915 261.124C273.18 261.124 273.464 261.261 273.757 261.735C274.058 262.221 274.321 262.996 274.521 264.102C274.919 266.305 275.039 269.649 274.866 274.158C274.521 283.165 273.014 296.696 270.342 314.762ZM156.32 852.225C152.039 872.181 147.694 892.471 143.286 913.097C143.99 911.94 144.684 910.796 145.368 909.665C145.914 908.762 146.454 907.866 146.987 906.98C151.452 887.203 155.801 867.88 160.032 849.011C158.846 850.015 157.609 851.086 156.32 852.225ZM175.336 855.203C170.409 866.368 161.511 882.71 148.631 904.24C152.963 885.048 157.184 866.285 161.294 847.951C164.076 845.637 166.554 843.715 168.73 842.184C170.871 840.679 172.709 839.559 174.247 838.818C175.795 838.072 176.995 837.732 177.872 837.732C178.712 837.732 179.224 838.037 179.53 838.605C179.865 839.226 179.995 840.237 179.826 841.718C179.489 844.667 178.007 849.151 175.336 855.203ZM156.672 850.585C157.965 849.454 159.205 848.393 160.393 847.401C194.792 693.972 221.443 570.628 240.348 477.369C247.09 444.11 252.847 414.679 257.618 389.076C229.282 515.129 195.633 668.965 156.672 850.585Z" fill="#32393D"/>
</svg>
