<svg xmlns="http://www.w3.org/2000/svg" width="1440" height="1100" viewBox="0 0 1440 1100" fill="none">
<g>

<path d="M-316.323 580C-620.222 86.9794 -584.044 86.9794 -207.787 580C49.2051 760.469 85.3837 760.469 -99.2515 580C-403.151 399.531 -366.973 399.531 9.28406 580C341.917 718.621 378.095 718.621 117.82 580C-186.08 441.379 -149.901 441.379 226.355 580C1213.14 1168.49 1249.32 1168.49 334.891 580C30.9911 -8.48615 67.1697 -8.48615 443.426 580C708.478 820.625 744.657 820.625 551.962 580C248.062 339.375 284.241 339.375 660.497 580C1165.58 985.402 1201.76 985.402 769.033 580C465.133 174.598 501.312 174.598 877.568 580C1140.34 740.853 1176.52 740.853 986.104 580C682.204 419.147 718.383 419.147 1094.64 580C2000.1 1193.33 2036.28 1193.33 1203.18 580C899.275 -33.3333 935.454 -33.3333 1311.71 580" stroke="#51CBB0" stroke-width="2"/>
</g>

</svg>